<?xml version="1.0" encoding="UTF-8" standalone="no"?>
<!DOCTYPE svg PUBLIC "-//W3C//DTD SVG 1.1//EN" "http://www.w3.org/Graphics/SVG/1.1/DTD/svg11.dtd">
<svg version="1.1" xmlns="http://www.w3.org/2000/svg" xmlns:xlink="http://www.w3.org/1999/xlink" preserveAspectRatio="xMidYMid meet" viewBox="0 0 640 640" width="640" height="640"><defs><path d="M9.67 0.32L10.66 0.7L11.58 1.21L12.42 1.84L13.16 2.58L13.79 3.42L14.3 4.34L14.68 5.33L14.92 6.39L15 7.5L14.99 7.95L14.95 8.39L14.88 8.83L14.79 9.26L14.67 9.69L14.53 10.11L14.36 10.52L14.17 10.92L13.96 11.31L13.72 11.68L13.46 12.04L17 15.59L15.59 17L12.04 13.46L11.69 13.71L11.33 13.94L10.95 14.16L10.55 14.35L10.15 14.51L9.73 14.66L9.3 14.78L8.86 14.87L8.42 14.94L7.96 14.99L7.5 15L6.39 14.92L5.33 14.68L4.34 14.3L3.42 13.79L2.58 13.16L1.84 12.42L1.21 11.58L0.7 10.66L0.32 9.67L0.08 8.61L0 7.5L0.08 6.39L0.32 5.33L0.7 4.34L1.21 3.42L1.84 2.58L2.58 1.84L3.42 1.21L4.34 0.7L5.33 0.32L6.39 0.08L7.5 0L8.61 0.08L9.67 0.32ZM4.73 2.75L3.61 3.61L2.75 4.73L2.2 6.04L2 7.5L2.2 8.96L2.75 10.27L3.61 11.39L4.73 12.25L6.04 12.8L7.5 13L8.96 12.8L10.27 12.25L11.39 11.39L12.25 10.27L12.8 8.96L13 7.5L12.8 6.04L12.25 4.73L11.39 3.61L10.27 2.75L8.96 2.2L7.5 2L6.04 2.2L4.73 2.75Z" id="a7RUgEZXZ2"></path></defs><g><g><g><use xlink:href="#a7RUgEZXZ2" opacity="1" fill="#ee3643" fill-opacity="1"></use><g><use xlink:href="#a7RUgEZXZ2" opacity="1" fill-opacity="0" stroke="#000000" stroke-width="1" stroke-opacity="0"></use></g></g></g></g></svg>